# xmcd
#
# Track frame offsets: 
#        150
#        12709
#        26142
#        40889
#        53779
#        65237
#        79213
#        87658
#        100999
#        114062
#        128782
#        141705
#        156655
#        168235
#        179879
#        192156
#        206345
#        218942
#        230081
#        240187
#
# Disc length: 3375 seconds
#
# Revision: 1
# Processed by: cddbd v1.5.2PL0 Copyright (c) Steve Scherf et al.
# Submitted via: ExactAudioCopyFreeDBPlugin 1.0
#
DISCID=2f0d2d14
DTITLE=Various Artist - Lady Sings The Blues (100 Hits)
DYEAR=2006
DGENRE=Blues
TTITLE0=Della Reese - Birth Of The Blues
TTITLE1=Clara Smith - For Sale
TTITLE2=Gladys Knight and The Pips - Guess Who
TTITLE3=Ella Fitzgerald - I Got It Bad And That Ain't Good
TTITLE4=Lucky Millender - I'm Waiting Just For You
TTITLE5=Mildred Bailey - Lover Come Back To Me
TTITLE6=Dinah Washington - Mean And Evil Blues
TTITLE7=Bessie Smith - Nobody Knows You When You're Down And Out
TTITLE8=Ida Cox - One Hour Mama
TTITLE9=Esther Phillips - Release Me
TTITLE10=Fay Adams - Shake A Hand
TTITLE11=Lena Horne - Stormy Weather
TTITLE12=Sarah Vaughan - Trouble Is A Man
TTITLE13=Linda Baker - Trying
TTITLE14=Ella Fitzgerald - Mama Come Home
TTITLE15=Bessie Smith - Young Woman's Blues
TTITLE16=Memphis Minnie - Moonshine
TTITLE17=Sarah Vaughan - Perdido
TTITLE18=Della Reese - Getting To Know You
TTITLE19=Dinah Washington - Rich Man's Blues
EXTD=
EXTT0=
EXTT1=
EXTT2=
EXTT3=
EXTT4=
EXTT5=
EXTT6=
EXTT7=
EXTT8=
EXTT9=
EXTT10=
EXTT11=
EXTT12=
EXTT13=
EXTT14=
EXTT15=
EXTT16=
EXTT17=
EXTT18=
EXTT19=
PLAYORDER=
